<svg width="124" height="26" viewBox="0 0 124 26" fill="none" xmlns="http://www.w3.org/2000/svg">
<path d="M9.09562 25.3645C7.37649 25.3645 5.72349 25.089 4.13661 24.538C2.57176 23.987 1.35956 23.2596 0.5 22.356L1.45874 20.4716C2.29626 21.3091 3.40929 21.9923 4.79781 22.5213C6.18633 23.0282 7.61893 23.2817 9.09562 23.2817C11.1674 23.2817 12.7212 22.907 13.7571 22.1576C14.793 21.3862 15.3109 20.3944 15.3109 19.1822C15.3109 18.2565 15.0244 17.5182 14.4514 16.9672C13.9003 16.4162 13.2171 15.9974 12.4016 15.7109C11.5861 15.4024 10.4511 15.0718 8.99644 14.7191C7.25527 14.2783 5.86675 13.8595 4.83087 13.4628C3.79499 13.0441 2.90237 12.4159 2.153 11.5784C1.42568 10.7409 1.06202 9.60582 1.06202 8.17322C1.06202 7.0051 1.37058 5.94717 1.9877 4.99945C2.60482 4.02969 3.55255 3.25829 4.83087 2.68525C6.10919 2.1122 7.69608 1.82568 9.59152 1.82568C10.9139 1.82568 12.2033 2.01302 13.4595 2.38771C14.7379 2.74035 15.8399 3.23625 16.7656 3.87541L15.9391 5.82595C14.9693 5.18679 13.9334 4.71293 12.8314 4.40437C11.7294 4.07377 10.6494 3.90847 9.59152 3.90847C7.56384 3.90847 6.03205 4.30519 4.99617 5.09863C3.98233 5.87003 3.47541 6.87285 3.47541 8.1071C3.47541 9.03278 3.75091 9.78214 4.30191 10.3552C4.87495 10.9062 5.58023 11.336 6.41775 11.6445C7.27732 11.931 8.4234 12.2506 9.856 12.6033C11.5531 13.022 12.9196 13.4408 13.9555 13.8595C15.0134 14.2563 15.906 14.8734 16.6333 15.7109C17.3606 16.5264 17.7243 17.6394 17.7243 19.05C17.7243 20.2181 17.4047 21.287 16.7656 22.2568C16.1484 23.2045 15.1897 23.9649 13.8893 24.538C12.589 25.089 10.9911 25.3645 9.09562 25.3645Z" fill="#0D0D0D"/>
<path d="M22.5588 7.7765H24.9061V25.1661H22.5588V7.7765Z" fill="#0D0D0D"/>
<path d="M48.2318 13.5951H50.579V22.4221C49.4991 23.3698 48.2207 24.0972 46.7441 24.6041C45.2674 25.111 43.7136 25.3645 42.0826 25.3645C39.7684 25.3645 37.6856 24.8575 35.8342 23.8437C33.9829 22.8298 32.5282 21.4303 31.4703 19.6451C30.4124 17.8378 29.8834 15.8211 29.8834 13.5951C29.8834 11.369 30.4124 9.36338 31.4703 7.57814C32.5282 5.77085 33.9829 4.36029 35.8342 3.34645C37.6856 2.3326 39.7794 1.82568 42.1157 1.82568C43.8789 1.82568 45.4988 2.1122 46.9755 2.68525C48.4522 3.23625 49.6974 4.06275 50.7113 5.16475L49.1905 6.71857C47.3612 4.91129 45.036 4.00765 42.2148 4.00765C40.3414 4.00765 38.6443 4.42641 37.1236 5.26393C35.6249 6.07941 34.4457 7.2255 33.5862 8.70218C32.7266 10.1568 32.2968 11.7878 32.2968 13.5951C32.2968 15.4024 32.7266 17.0333 33.5862 18.488C34.4457 19.9426 35.6249 21.0887 37.1236 21.9262C38.6223 22.7637 40.3084 23.1825 42.1818 23.1825C44.5621 23.1825 46.5788 22.5874 48.2318 21.3972V13.5951Z" fill="#0D0D0D"/>
<path d="M76.8432 2.02404V25.1661H74.8265L59.9495 6.38797V25.1661H57.5031V2.02404H59.5197L74.4298 20.8022V2.02404H76.8432Z" fill="#0D0D0D"/>
<path d="M98.91 18.9839H86.0166L83.2395 25.1661H80.6939L91.2731 2.02404H93.6865L104.266 25.1661H101.687L98.91 18.9839ZM98.0174 17.0003L92.4633 4.56967L86.9092 17.0003H98.0174Z" fill="#0D0D0D"/>
<path d="M108.094 2.02404H110.54V23.0502H123.5V25.1661H108.094V2.02404Z" fill="#0D0D0D"/>
<path d="M23.7494 3.97457C23.2645 3.97457 22.8568 3.80927 22.5262 3.47866C22.1956 3.14806 22.0303 2.75134 22.0303 2.2885C22.0303 1.8477 22.1956 1.462 22.5262 1.1314C22.8568 0.800799 23.2645 0.635498 23.7494 0.635498C24.2343 0.635498 24.642 0.800799 24.9726 1.1314C25.3032 1.43996 25.4685 1.81464 25.4685 2.25544C25.4685 2.74032 25.3032 3.14806 24.9726 3.47866C24.642 3.80927 24.2343 3.97457 23.7494 3.97457Z" fill="#DC0000"/>
</svg>
