<svg width="51" height="50" viewBox="0 0 51 50" fill="none" xmlns="http://www.w3.org/2000/svg">
<circle cx="25.5" cy="25" r="25" fill="black"/>
<path d="M28.6962 19.6157H16.3535V32.9404H19.7889V28.6053H26.3716L29.375 32.9404H33.2218L29.9099 28.5855C30.9385 28.4256 31.679 28.0461 32.1316 27.4467C32.5841 26.8475 32.8104 25.8885 32.8104 24.61V23.6112C32.8104 22.852 32.7282 22.2527 32.5841 21.7932C32.4401 21.3337 32.1933 20.9342 31.8436 20.5746C31.4733 20.235 31.0619 19.9953 30.5682 19.8355C30.0744 19.6956 29.4572 19.6157 28.6962 19.6157ZM28.1408 25.6688H19.7889V22.5523H28.1408C28.6139 22.5523 28.943 22.6323 29.1076 22.7721C29.2721 22.9119 29.375 23.1716 29.375 23.5512V24.67C29.375 25.0695 29.2721 25.3292 29.1076 25.469C28.943 25.6088 28.6139 25.6688 28.1408 25.6688Z" fill="white"/>
<path d="M36.5789 18.9514C37.8626 18.9514 38.904 17.9069 38.904 16.6185C38.904 15.3301 37.8626 14.2856 36.5789 14.2856C35.2942 14.2856 34.2528 15.3301 34.2528 16.6185C34.2528 17.9069 35.2942 18.9514 36.5789 18.9514Z" fill="#F41240"/>
</svg>
